# This file uses meters as units for non-parametric coordinates.

mtllib slender note.mtl
g default
v -11.027439 -15.820072 1.095018
v 11.027439 -15.820072 1.095018
v -11.027439 15.820072 1.095018
v 11.027439 15.820072 1.095018
v -11.027439 15.820072 -1.095018
v 11.027439 15.820072 -1.095018
v -11.027439 -15.820072 -1.095018
v 11.027439 -15.820072 -1.095018
vt 0.339661 0.342735
vt 0.671943 0.342735
vt 0.671943 0.672215
vt 0.339661 0.672215
vt 0.335105 0.342735
vt 0.667387 0.342735
vt 0.667387 0.672215
vt 0.335105 0.672215
vt 0.334964 0.345218
vt 0.667246 0.345218
vt 0.667246 0.674698
vt 0.334964 0.674698
vt 0.339160 0.345218
vt 0.671442 0.345218
vt 0.671442 0.674698
vt 0.339160 0.674698
vt -0.011272 0.014218
vt 1.024791 0.014218
vt 1.024791 0.999505
vt -0.011272 0.999505
vt 0.339160 0.340253
vt 0.671442 0.340253
vt 0.671442 0.669733
vt 0.339160 0.669733
vn 0.000000 0.000000 1.000000
vn 0.000000 0.000000 1.000000
vn 0.000000 0.000000 1.000000
vn 0.000000 0.000000 1.000000
vn 0.000000 1.000000 0.000000
vn 0.000000 1.000000 0.000000
vn 0.000000 1.000000 0.000000
vn 0.000000 1.000000 0.000000
vn 0.000000 0.000000 -1.000000
vn 0.000000 0.000000 -1.000000
vn 0.000000 0.000000 -1.000000
vn 0.000000 0.000000 -1.000000
vn 0.000000 -1.000000 0.000000
vn 0.000000 -1.000000 0.000000
vn 0.000000 -1.000000 0.000000
vn 0.000000 -1.000000 0.000000
vn 1.000000 0.000000 0.000000
vn 1.000000 0.000000 0.000000
vn 1.000000 0.000000 0.000000
vn 1.000000 0.000000 0.000000
vn -1.000000 0.000000 0.000000
vn -1.000000 0.000000 0.000000
vn -1.000000 0.000000 0.000000
vn -1.000000 0.000000 0.000000
s off
g pCube1
usemtl blinn1SG
f 1/17/1 2/18/2 4/19/3 3/20/4
f 3/9/5 4/10/6 6/11/7 5/12/8
f 5/21/9 6/22/10 8/23/11 7/24/12
f 7/13/13 8/14/14 2/15/15 1/16/16
f 2/1/17 8/2/18 6/3/19 4/4/20
f 7/5/21 1/6/22 3/7/23 5/8/24
